<svg width="2160" height="2160" viewBox="0 0 2160 2160" fill="none" xmlns="http://www.w3.org/2000/svg">
<rect width="2160" height="2160" fill="#000A30"/>
<path d="M1080 1080C1343.7 1080 1559.71 875.916 1578.61 617.037C1580.13 596.996 1564.28 580 1544.23 580H1390.51C1372.88 580 1358.16 593.318 1356.13 610.822C1340.78 749.711 1223.08 857.778 1080 857.778C936.929 857.778 819.222 749.711 803.875 610.822C801.972 593.318 787.259 580 769.628 580H615.772C595.731 580 580.003 596.996 581.399 617.037C600.298 875.916 816.305 1080 1080 1080Z" fill="#B0C2FF"/>
<path d="M1542.84 1081.39C1340.53 1096.24 1166.63 1230.68 1099.79 1414.09C1093.06 1432.49 1066.94 1432.49 1060.21 1414.09C993.369 1230.68 819.472 1096.24 617.164 1081.39C597.123 1079.87 580 1095.73 580 1115.77V1269.5C580 1287.13 593.318 1301.97 610.822 1303.87C740.832 1318.08 850.294 1420.44 865.515 1549.43C867.544 1566.81 882.258 1580 899.762 1580H1070.49H1089.51H1260.24C1277.74 1580 1292.46 1566.81 1294.49 1549.43C1309.58 1420.44 1419.17 1318.08 1549.18 1303.87C1566.68 1301.97 1580 1287.13 1580 1269.5V1115.77C1580 1095.73 1562.88 1079.87 1542.84 1081.27V1081.39Z" fill="#B0C2FF"/>
</svg>
