<svg width="43" height="43" viewBox="0 0 43 43" fill="none" xmlns="http://www.w3.org/2000/svg">
<rect width="43" height="43" fill="#143229"/>
<g clip-path="url(#clip0_1595_147)">
<path d="M20.1348 20.3012L24.6428 19.9633C25.9428 19.8664 27.1643 19.3294 28.0865 18.4507L33.3903 13.3978H27.379L22.0312 18.4927L20.1329 20.3012H20.1348ZM24.6428 22.7491L20.1348 22.4112L22.0331 24.2197L27.381 29.3146H33.3922L28.0885 24.2617C27.1662 23.383 25.9448 22.8478 24.6447 22.7491H24.6428ZM18.9517 19.1357L24.9726 13.3996L21.9679 10.5352L13.6154 18.4927L11 20.9845L15.508 20.6465C16.808 20.5497 18.0294 20.0126 18.9517 19.1339V19.1357ZM15.508 22.0659L11 21.7279L13.6154 24.2197L21.9679 32.1772L24.9726 29.3146L18.9517 23.5785C18.0294 22.6998 16.808 22.1646 15.508 22.0659Z" fill="#75FF45"/>
</g>
<defs>
<clipPath id="clip0_1595_147">
<rect width="22" height="24" fill="white" transform="translate(11 9)"/>
</clipPath>
</defs>
</svg>
